Coordinates
version=1
nRows=8
nColumns=63
inDegrees=yes

Units are S.I. units (second, meters, Newtons, ...)
If the header above contains a line with 'inDegrees', this indicates whether rotational values are in degrees (yes) or radians (no).

endheader
time	pelvis_tilt	pelvis_list	pelvis_rotation	pelvis_tx	pelvis_ty	pelvis_tz	hip_flexion_r	hip_adduction_r	hip_rotation_r	knee_angle_r	knee_angle_r_beta	ankle_angle_r	subtalar_angle_r	mtp_angle_r	hip_flexion_l	hip_adduction_l	hip_rotation_l	knee_angle_l	knee_angle_l_beta	ankle_angle_l	subtalar_angle_l	mtp_angle_l	L5_S1_Flex_Ext	L5_S1_Lat_Bending	L5_S1_axial_rotation	L4_L5_Flex_Ext	L4_L5_Lat_Bending	L4_L5_axial_rotation	L3_L4_Flex_Ext	L3_L4_Lat_Bending	L3_L4_axial_rotation	L2_L3_Flex_Ext	L2_L3_Lat_Bending	L2_L3_axial_rotation	L1_L2_Flex_Ext	L1_L2_Lat_Bending	L1_L2_axial_rotation	L1_T12_Flex_Ext	L1_T12_Lat_Bending	L1_T12_axial_rotation	Abs_r3	Abs_r2	Abs_r1	Abs_t1	Abs_t2	neck_flexion	neck_bending	neck_rotation	arm_flex_r	arm_add_r	arm_rot_r	elbow_flex_r	pro_sup_r	wrist_flex_r	wrist_dev_r	arm_flex_l	arm_add_l	arm_rot_l	elbow_flex_l	pro_sup_l	wrist_flex_l	wrist_dev_l
      4.76666667	      4.45650178	     -2.64722202	    176.94323026	      2.44060997	      0.89019719	      0.61385554	     13.09285136	     -1.08336967	     -0.78700545	     23.20571027	      0.40501605	     20.99134059	    -11.58321152	      0.00000000	     10.07000233	      3.27719696	     -3.21544488	     17.57794155	      0.30679296	     16.55739900	    -18.18430809	      0.00000000	      0.00159024	     -0.36515069	     -0.31091271	      0.00295323	     -0.48565041	     -0.33034475	      0.00261260	     -0.88782738	     -0.33034475	      0.00181748	     -0.88782738	     -0.27204862	      0.00147669	     -0.74461528	     -0.25261658	      0.00090866	     -0.56561841	     -0.23318453	      0.01135889	     -4.13065760	     -1.72920322	      0.00000000	      0.00000000	     -0.00000000	      0.00000000	      0.00000000	      3.82017674	    -10.74722947	     54.13648123	     19.61330104	     55.79145258	      0.00000000	      5.00000014	     -2.52209442	    -13.82788519	     38.90359077	     19.31077894	     55.77464156	      0.00000000	      5.00000014
      4.80000000	      4.52757421	     -2.81417704	    176.57950636	      2.44103356	      0.89026842	      0.61393749	     13.57272053	     -1.53523666	     -2.17764852	     23.93219336	      0.41769557	     21.59997487	     -9.31654217	      0.00000000	     10.13518924	      3.24653799	     -4.71958839	     17.50927045	      0.30559442	     16.53682205	    -17.29006341	      0.00000000	      0.00247689	     -0.38313172	     -0.24995129	      0.00459983	     -0.50956519	     -0.26557325	      0.00406928	     -0.93154646	     -0.26557325	      0.00283084	     -0.93154646	     -0.21870738	      0.00230004	     -0.78128220	     -0.20308543	      0.00141529	     -0.59347103	     -0.18746347	      0.01769216	     -4.33406264	     -1.39015411	      0.00000000	      0.00000000	     -0.00000000	      0.00000000	      0.00000000	      3.84843143	    -10.64509703	     53.54540841	     19.52102843	     56.85414051	      0.00000000	      5.00000014	     -2.54587630	    -13.71350751	     37.94792394	     19.28040931	     56.71092739	      0.00000000	      5.00000014
      4.83333333	      4.62502578	     -2.61764751	    177.01198295	      2.44134467	      0.89052272	      0.61464578	     13.44563792	     -1.31425706	     -2.28548323	     23.53480267	      0.41075980	     21.03528187	    -10.03140906	      0.00000000	     10.28308249	      2.87593661	     -5.50567065	     17.65813467	      0.30819259	     16.66455387	    -15.73773466	      0.00000000	      0.00098360	     -0.36303320	     -0.33867635	      0.00182664	     -0.48283416	     -0.35984363	      0.00161596	     -0.88267892	     -0.35984363	      0.00112416	     -0.88267892	     -0.29634181	      0.00091337	     -0.74029730	     -0.27517454	      0.00056203	     -0.56233843	     -0.25400726	      0.00702575	     -4.10670416	     -1.88361627	      0.00000000	      0.00000000	     -0.00000000	      0.00000000	      0.00000000	      3.94795436	    -10.71932392	     53.66553409	     19.60628565	     57.42889274	      0.00000000	      5.00000014	     -2.62095278	    -13.64445860	     37.37549722	     19.45778204	     56.94718341	      0.00000000	      5.00000014
      4.86666667	      4.72113971	     -2.27867945	    177.08204765	      2.44167216	      0.89082920	      0.61455107	     12.96859707	     -0.39711174	      0.24725195	     22.30050616	      0.38921726	     19.36242339	    -13.76552831	      0.00000000	     10.54195655	      1.87426729	     -8.87835834	     18.27395536	      0.31894069	     17.91724327	    -10.66495640	      0.00000000	      0.00050699	     -0.33059181	     -0.35501828	      0.00094153	     -0.43968711	     -0.37720692	      0.00083293	     -0.80380093	     -0.37720692	      0.00057944	     -0.80380093	     -0.31064100	      0.00047079	     -0.67414282	     -0.28845235	      0.00028969	     -0.51208671	     -0.26626371	      0.00362137	     -3.73972067	     -1.97450518	      0.00000000	      0.00000000	     -0.00000000	      0.00000000	      0.00000000	      4.11713058	    -10.76766934	     54.35777693	     19.50152413	     57.29039828	      0.00000000	      5.00000014	     -2.67537736	    -13.49468113	     36.69465968	     19.45561530	     56.29517811	      0.00000000	      5.00000014
      4.90000000	      4.78957023	     -1.84534834	    177.19349631	      2.44172197	      0.89120343	      0.61447554	     11.97107309	      0.52033136	      2.73696322	     20.15557858	      0.35178121	     17.65879000	    -16.90606375	      0.00000000	     10.76793505	      0.63820319	    -12.81970066	     19.06287257	      0.33270989	     19.19583519	     -4.62926567	      0.00000000	      0.00008108	     -0.28755618	     -0.37199201	      0.00015058	     -0.38244972	     -0.39524151	      0.00013321	     -0.69916410	     -0.39524151	      0.00009267	     -0.69916410	     -0.32549301	      0.00007529	     -0.58638457	     -0.30224351	      0.00004633	     -0.44542453	     -0.27899401	      0.00057916	     -3.25289304	     -2.06890798	      0.00000000	      0.00000000	     -0.00000000	      0.00000000	      0.00000000	      4.13665423	    -10.83855768	     54.41882514	     19.50424028	     57.13793066	      0.00000000	      5.00000014	     -2.64197375	    -13.34308890	     36.62435125	     19.31819864	     56.04188612	      0.00000000	      5.00000014
      4.93333333	      4.81993492	     -1.44703461	    177.35544940	      2.44153581	      0.89156458	      0.61472615	     10.78628657	      1.08987131	      4.08382450	     17.75246969	      0.30983905	     16.64359761	    -18.06766466	      0.00000000	     10.87921477	     -0.19162991	    -14.79053252	     19.55786636	      0.34134916	     19.55269330	     -1.49185189	      0.00000000	     -0.00055134	     -0.24472902	     -0.39692324	     -0.00102390	     -0.32548960	     -0.42173094	     -0.00090580	     -0.59503415	     -0.42173094	     -0.00063013	     -0.59503415	     -0.34730783	     -0.00051198	     -0.49905142	     -0.32250013	     -0.00031504	     -0.37908526	     -0.29769243	     -0.00393818	     -2.76842365	     -2.20756798	      0.00000000	      0.00000000	     -0.00000000	      0.00000000	      0.00000000	      4.06714834	    -10.95298472	     54.23840438	     19.55103386	     56.18058526	      0.00000000	      5.00000014	     -2.65710080	    -13.12445605	     36.43709443	     19.16306194	     55.09528884	      0.00000000	      5.00000014
      4.96666667	      4.80638461	     -1.26082224	    177.67336603	      2.44115750	      0.89184865	      0.61528904	      9.84421076	      1.24822826	      4.44290008	     15.96274769	      0.27860250	     16.24448704	    -18.33630744	      0.00000000	     10.88363792	     -0.36728779	    -14.61707658	     19.65528624	      0.34304946	     19.30132893	     -1.09114285	      0.00000000	     -0.00066552	     -0.22459663	     -0.45093077	     -0.00123594	     -0.29871352	     -0.47911394	     -0.00109339	     -0.54608425	     -0.47911394	     -0.00076063	     -0.54608425	     -0.39456442	     -0.00061800	     -0.45799745	     -0.36638125	     -0.00038028	     -0.34790018	     -0.33819807	     -0.00475376	     -2.54068200	     -2.50794164	      0.00000000	      0.00000000	     -0.00000000	      0.00000000	      0.00000000	      4.01627831	    -10.97048114	     54.01735765	     19.48720054	     55.81230535	      0.00000000	      5.00000014	     -2.67709357	    -12.95830138	     36.21873836	     19.00424327	     54.76508067	      0.00000000	      5.00000014
      5.00000000	      4.79744161	     -1.15531031	    177.57458203	      2.44099968	      0.89192580	      0.61531374	      9.49334618	      1.36495578	      4.73905152	     15.26018061	      0.26634040	     16.26386266	    -18.38491206	      0.00000000	     10.88477259	     -0.49510903	    -14.75336778	     19.72174608	      0.34420940	     19.03118426	     -1.01292439	      0.00000000	     -0.00028560	     -0.21216070	     -0.43418203	     -0.00053039	     -0.28217373	     -0.46131841	     -0.00046921	     -0.51584752	     -0.46131841	     -0.00032641	     -0.51584752	     -0.37990928	     -0.00026521	     -0.43263810	     -0.35277290	     -0.00016319	     -0.32863692	     -0.32563653	     -0.00204001	     -2.40000425	     -2.41479022	      0.00000000	      0.00000000	     -0.00000000	      0.00000000	      0.00000000	      3.93756756	    -11.06855881	     53.43846187	     19.68374944	     56.79494548	      0.00000000	      5.00000014	     -2.71984191	    -12.83378680	     35.54009411	     18.99227359	     55.72964592	      0.00000000	      5.00000014
